<?xml version="1.0" encoding="UTF-8" standalone="no"?>
<!-- Created with Inkscape (http://www.inkscape.org/) -->

<svg
   width="127.99125mm"
   height="31.496687mm"
   viewBox="0 0 127.99125 31.496687"
   version="1.1"
   id="svg8"
   inkscape:version="1.4.2 (ebf0e940d0, 2025-05-08)"
   sodipodi:docname="logo.svg"
   inkscape:export-filename="/home/marco/haw/mehr/abschluss/riptide/logo.png"
   inkscape:export-xdpi="199"
   inkscape:export-ydpi="199"
   xmlns:inkscape="http://www.inkscape.org/namespaces/inkscape"
   xmlns:sodipodi="http://sodipodi.sourceforge.net/DTD/sodipodi-0.dtd"
   xmlns="http://www.w3.org/2000/svg"
   xmlns:svg="http://www.w3.org/2000/svg"
   xmlns:rdf="http://www.w3.org/1999/02/22-rdf-syntax-ns#"
   xmlns:cc="http://creativecommons.org/ns#"
   xmlns:dc="http://purl.org/dc/elements/1.1/">
  <defs
     id="defs2" />
  <sodipodi:namedview
     id="base"
     pagecolor="#ffffff"
     bordercolor="#666666"
     borderopacity="1.0"
     inkscape:pageopacity="0.0"
     inkscape:pageshadow="2"
     inkscape:zoom="1.6976087"
     inkscape:cx="194.09655"
     inkscape:cy="184.377"
     inkscape:document-units="mm"
     inkscape:current-layer="layer1"
     showgrid="false"
     fit-margin-top="0"
     fit-margin-left="0"
     fit-margin-right="0"
     fit-margin-bottom="0"
     inkscape:window-width="1920"
     inkscape:window-height="1131"
     inkscape:window-x="0"
     inkscape:window-y="0"
     inkscape:window-maximized="1"
     inkscape:showpageshadow="2"
     inkscape:pagecheckerboard="0"
     inkscape:deskcolor="#d1d1d1" />
  <metadata
     id="metadata5">
    <rdf:RDF>
      <cc:Work
         rdf:about="">
        <dc:format>image/svg+xml</dc:format>
        <dc:type
           rdf:resource="http://purl.org/dc/dcmitype/StillImage" />
        <dc:title />
      </cc:Work>
    </rdf:RDF>
  </metadata>
  <g
     inkscape:label="Ebene 1"
     inkscape:groupmode="layer"
     id="layer1"
     transform="translate(-16.52853,-12.470934)">
    <text
       xml:space="preserve"
       style="font-style:italic;font-variant:normal;font-weight:normal;font-stretch:normal;font-size:30.664px;line-height:19.165px;font-family:Amaranth;-inkscape-font-specification:'Amaranth Italic';letter-spacing:0px;word-spacing:0px;fill:#4da6ff;fill-opacity:1;stroke:none;stroke-width:0.766601px;stroke-linecap:butt;stroke-linejoin:miter;stroke-opacity:1"
       x="50.398888"
       y="37.160202"
       id="text869"><tspan
         sodipodi:role="line"
         id="tspan867"
         x="50.398888"
         y="37.160202"
         style="font-style:italic;font-variant:normal;font-weight:bold;font-stretch:normal;font-family:Amaranth;-inkscape-font-specification:'Amaranth Bold Italic';fill:#4da6ff;fill-opacity:1;stroke-width:0.766601px">Riptide</tspan></text>
    <g
       id="g932"
       transform="matrix(0.06038604,0,0,0.06038604,16.52853,10.625959)">
      <path
         id="path871"
         d="m 311.986,30.553 h -2.671 C 157.496,30.553 3.228,148.981 0.223,377.043 L 0,464.751 c 0,9.195 7.5,16.696 16.696,16.696 h 152.152 c -40.161,-63.603 -43.329,-154.694 0.892,-231.736 22.01,-38.122 55.472,-70.581 96.167,-87.93 18.396,-8.175 40.452,-12.202 56.877,-13.985 l 18.922,-0.039 c 12.133,0.445 24.71,6.344 37.288,17.697 8.903,7.903 14.024,19.588 17.141,32.835 5.009,21.816 4.006,47.638 3.227,67.117 -0.667,18.588 -1.113,29.83 2.671,38.066 4.341,9.35 14.136,13.802 24.821,11.464 24.933,-5.455 71.012,-59.659 71.346,-122.769 C 498.643,98.003 422.065,31.555 311.986,30.553 Z"
         style="fill:#57deff"
         inkscape:connector-curvature="0" />
      <path
         id="path873"
         d="m 221.496,282.546 c 2.344,-44.542 19.871,-89.727 57.21,-114.755 14.358,-9.683 31.722,-16.362 52.424,-19.144 3.452,-0.779 7.012,-1.002 10.574,-0.89 l 37.288,-0.557 -22.595,-30.943 c -5.84,-1.753 -11.734,-2.449 -16.918,-2.449 -86.492,0 -156.856,46.826 -198.678,119.318 -45.788,79.567 -47.697,174.938 -10.24,248.32 H 346.156 C 263.504,456.61 217.335,365.595 221.496,282.546 Z"
         style="fill:#52c2ff"
         inkscape:connector-curvature="0" />
      <path
         id="path875"
         d="m 495.304,381.273 c -114.421,0 -191.555,-39.958 -211.59,-109.857 -7.012,-24.598 -5.677,-49.085 0.78,-69.677 8.538,-27.327 28.552,-54.879 57.209,-53.983 12.133,0.445 24.71,6.344 37.288,17.697 8.903,7.903 14.024,19.588 17.141,32.835 2.893,-7.235 4.562,-15.026 4.562,-23.263 0,-27.937 -18.698,-51.423 -44.299,-58.769 -27.401,-7.211 -110.033,6.162 -148.37,84.369 -11.464,23.04 -18.364,50.087 -19.812,80.25 -3.762,72.891 26.611,153.176 86.93,200.57 h 220.16 c 9.239,0 16.696,-7.457 16.696,-16.696 V 397.966 C 512,388.73 504.544,381.273 495.304,381.273 Z"
         style="fill:#4da6ff"
         inkscape:connector-curvature="0" />
      <g
         id="g877" />
      <g
         id="g879" />
      <g
         id="g881" />
      <g
         id="g883" />
      <g
         id="g885" />
      <g
         id="g887" />
      <g
         id="g889" />
      <g
         id="g891" />
      <g
         id="g893" />
      <g
         id="g895" />
      <g
         id="g897" />
      <g
         id="g899" />
      <g
         id="g901" />
      <g
         id="g903" />
      <g
         id="g905" />
    </g>
  </g>
</svg>
