<?xml version="1.0" encoding="UTF-8"?>
<svg width="116.42mm" height="29.756mm" version="1.1" viewBox="0 0 116.42 29.756" xml:space="preserve"
     xmlns="http://www.w3.org/2000/svg">
  <style>
    path {
      fill: #3C2F80;
    }
    @media (prefers-color-scheme: dark) {
      path {
        fill: #FAEDDA;
      }
    }
  </style>
  <g transform="translate(-16.529 -12.471)">
  <path d="m49.685 21.598c1.2912-1.255 2.3817-3.0979 4.4247-3.1354 2.1842-0.84715 2.046 1.8273 2.3149 3.2233 0.26205 1.9012-2.5349 0.83737-3.7507 1.9633-1.5862 0.8228-3.3513 2.2479-3.1647 4.1903 0.06544 2.1085 0.0049 4.2745 0.35162 6.3587-0.36582 1.822-2.4196 0.70928-3.6628 1.1721-1.9198-0.26956-0.80067-2.6466-0.99629-3.995 0.16681-2.8704 0.12189-5.736 0.05967-8.5835 0.45087-1.4397-0.96398-3.4862 0.46776-4.4463 1.3263 0.19 3.7416-0.87344 4.3075 0.73256-0.11498 0.84603-0.52512 1.6335-0.3516 2.52zm12.688-5.7433c-1.3645 0.08422-2.7408 0.12714-4.0731 9e-6 -0.83704-1.4014-0.53132-3.8449 1.6116-3.2526 1.6389-0.19099 3.3502 0.19935 2.6372 2.3149-0.09538 0.31276 0.0823 0.6702-0.1758 0.9377zm-4.161 18.929c-0.08207-1.9856 0.49841-3.9729 0.17583-5.9777-0.09761-1.9732-0.13034-3.9739-0.26371-5.9484 0.0081-1.4742-1.3812-4.4877 1.0549-4.3954 1.3585 0.01709 3.7839-0.45317 3.3112 1.6996 0.32268 3.4657-0.35897 6.9604 0.0879 10.451-0.23709 1.4464 1.603 4.281-0.61534 4.6102-1.1589-0.23661-2.8955 0.50042-3.7507-0.43955zm12.454-15.999c-0.06107 1.652 2.3521-1.2498 3.8386-0.38094 2.0151 0.51749 4.0965 1.7348 5.1573 3.5749 1.6695 3.5507 1.3421 7.9768-0.9377 11.194-0.97094 1.5275-2.7107 2.4912-4.5419 2.1684-1.4546 0.56782-3.442-2.3026-3.7507-0.70328-0.0072 2.2408 0.48693 4.4915 0.2051 6.7103-0.82518 1.5426-3.3982 0.61335-4.9228 0.67395-1.0872-1.3052 0.09994-3.3917 0.02932-5.04 0.07255-4.372 0.14195-8.7598 0.29302-13.128 0.02182-1.6404-0.63511-3.311-0.41024-4.9521 1.2145-1.0404 2.9904-0.13562 4.4247-0.32232 0.22356 0.0024 0.42366 0.1025 0.61536 0.20513zm5.2452 6.007c-0.15384-1.1896-1.3116-1.6771-2.1977-2.227-2.5976-0.71645-3.7371 1.9594-3.2233 4.1024-0.29881 1.758 0.12875 3.3031 1.8461 4.1024 1.2213 0.91666 3.2242 0.74453 3.5862-1.0239 0.42436-1.5494 0.88438-3.5488-0.01125-4.9538zm12.893-6.388c2.1118-0.51417 3.0244 0.7556 2.52 2.7741 1.0387 3.2632-4.0239 0.55621-2.624 3.9848 0.09988 1.7036-0.04338 3.4339 0.48498 5.0794 0.70886 1.6118 4.0963 0.05825 2.6372 2.4321-0.50546 0.99679-0.56238 2.8387-2.0512 2.7837-2.0584-0.11632-4.8132-0.7818-5.04-3.2526-0.60083-1.4117-0.15917-3.0154-0.46883-4.5126-0.1652-1.4635 0.38473-3.7912-0.32233-4.6591-1.871 0.7054-2.2648-1.2257-2.0805-2.6665-0.4282-1.9196 0.64147-2.49 2.4028-1.9633 0.17432-1.7873-0.52178-3.4985-0.35164-5.2452 1.0142-0.73155 2.428-0.31796 3.6335-0.43953 2.1196-0.29662 1.6385 2.1016 1.4065 3.3991 0.02101 0.77082-0.14866 1.5169-0.14648 2.2856zm9.3768-2.5493c-1.3645 0.08422-2.7408 0.12714-4.0731 9e-6 -0.83704-1.4014-0.53132-3.8449 1.6116-3.2526 1.6389-0.19099 3.3502 0.19935 2.6372 2.3149-0.09538 0.31276 0.0823 0.6702-0.1758 0.9377zm-4.161 18.929c-0.08207-1.9856 0.49841-3.9729 0.17583-5.9777-0.09761-1.9732-0.13035-3.9739-0.26371-5.9484 0.0081-1.4742-1.3812-4.4877 1.0549-4.3954 1.3585 0.01709 3.7839-0.45317 3.3112 1.6996 0.32268 3.4657-0.35897 6.9604 0.0879 10.451-0.23709 1.4464 1.603 4.281-0.61534 4.6102-1.1589-0.23661-2.8955 0.50042-3.7507-0.43955zm18.549-22.27c1.1393 0.39215 3.4814-0.65348 3.5163 1.1135 0.12985 2.498-0.43579 5.0468-0.27134 7.5778 0.11814 3.7752-0.17274 7.5821 0.27134 11.322 0.0137 0.99888 0.81622 2.9257-0.84979 2.6665-1.2644-0.35468-3.5803 1.0651-3.9851-0.67396 0.42094-2.0937-1.9106 1.2409-3.2819 0.73256-2.4832 0.49186-5.1076-1.1277-5.8782-3.5224-1.0944-2.6556-1.3055-5.6662-0.4218-8.433 0.80005-1.8293 1.8104-3.8583 3.8386-4.6298 1.5644-0.86179 3.6242-1.3056 5.2744-0.32232 1.4789 0.13262 0.20271-2.9716 0.46886-4.161-0.47047-1.1831 0.0454-1.7686 1.3186-1.6702zm-1.9633 16.937c1.318-1.2106 0.4728-3.1969 0.64076-4.7538 0.37243-1.8606-1.8141-2.9305-3.3659-2.2202-1.9125 0.90578-2.7119 3.3922-2.0512 5.2745-0.15035 1.6388 1.6483 3.7438 3.3698 2.8131 0.52335-0.31153 0.91806-0.75404 1.4065-1.1135zm7.7652-3.9265c0.29896-1.923 0.80498-4.0274 2.3442-5.2745 0.90472-1.187 2.5092-1.8536 3.9851-2.1098 2.1679-0.85394 4.6764 0.24205 6.2476 1.7704 1.5394 1.6437 2.2199 4.1884 1.8691 6.4637-1.9104 0.83592-4.0263 1.26-6.0363 1.8168-1.5595 1.1152-3.0965 0.25248-3.78-1.3772-0.92502-1.6862-0.42207 2.1381 0.35162 2.7544 1.0624 2.1178 4.1888 2.4176 5.6261 0.64464 1.3466-0.45415 1.6206 1.5269 2.52 2.1098 0.71261 2.2947-2.7996 2.8013-4.454 3.1061-2.3928 0.29588-5.0966-0.6622-6.4758-2.7544-1.1785-1.5915-2.3263-3.4203-2.227-5.5089-0.20782-0.5377 0.14789-1.1291 0.0295-1.641zm9.4354-2.1098c-0.99564-2.0462-3.7832-0.99293-4.5419 0.73257-1.1453 1.89 3.351-0.37415 4.5126-0.41026l0.0879-0.20512-0.0586-0.11721z"
        stroke-width=".75015px" aria-label="riptide"/>
    <g
            transform="matrix(.4025 0 0 .4025 47.969 -132.71)"><path d="m-25.441 385.37c0.18299 1.9028 0.49321 3.7531 0.41736 5.6679-0.04634 2.2843 0.17876 4.5695-0.40974 6.8044 0.2537 2.5274-0.82303 4.8703-1.3244 7.3099-0.76031 1.7198-1.1995 3.5682-2.0635 5.2528-0.64054 1.6752-1.7712 3.0705-2.8662 4.4612-1.0892 1.4887-2.3493 2.8554-3.4479 4.3603-1.4927 1.3978-2.8019 3.108-4.5245 4.0978-1.451 0.81617-3.2852 1.276-4.5943 2.1517-1.608 0.41073-3.1394 1.1976-4.7811 1.6021-1.9574 0.25128-3.7806 1.4001-5.814 0.91624-2.0529 0.54862-4.2303 0.15051-6.356 0.34334-1.8922 0.0295-3.8358-0.32437-5.7292-0.44114-2.0846-0.26755-4.1967-0.62647-6.3157-1.0131-1.2853-0.1937-4.3726-0.45058-4.4831-0.78792 1.0833-1.608 2.1287-3.234 3.9706-4.0848 0.97509-1.0951 2.791-1.0738 3.8931-2.1508 1.4263-0.0201 2.5714-0.89533 3.995-0.63929 1.4657-0.33593 3.0367-0.78275 4.5576-1.0475 2.1493-0.26759 4.2249-0.99246 6.2639-1.7094 2.0523-0.34934 3.4301-1.8354 5.309-2.5684 1.1534-0.89931 2.5601-1.582 3.8097-2.4676 1.3679-1.046 2.0337-3 3.5494-4.105 0.91993-1.442 2.1911-2.6448 3.092-4.0249 1.338-1.2316 1.2434-3.3362 2.2475-4.7622 0.41198-1.674 0.48927-3.4592 0.92109-5.007 0.1712-1.794 0.03315-3.4782-0.30154-5.267-0.54566-2.3749-1.5238-4.693-3.0952-6.5332-1.522-2.0568-3.7669-3.3074-5.843-4.667-1.5085-1.2652-3.6471-1.3477-5.4956-1.8068-2.0706-0.23425-4.1333-0.32121-6.1518-0.18551-1.7734 0.23371-3.4739 0.32261-5.1204 1.0238-1.5217 0.58654-2.9381 1.2516-4.2776 2.1242-1.5881 1.0209-2.4356 2.5255-3.7414 3.8461-1.2126 1.6893-1.8043 3.7856-2.3138 5.8696-1.0206 1.517 0.0043 4.1307-1.4221 5.108-1.2606-0.87643-1.5953-2.7846-2.2853-4.192-0.30662-1.778-1.0326-3.6627-0.86428-5.5269 0.54491-3.0649 0.77881-6.2418 2.0138-9.1445 1.1261-1.1528 0.93328-3.0028 2.2139-4.1928 0.97174-1.564 2.4339-2.8172 3.7054-4.1372 1.2543-1.2359 2.7473-2.417 4.1969-3.1126 1.6148-0.47857 3.2687-1.2799 5.0575-1.4324 1.8206-0.13663 3.5682-0.39028 5.4022-0.47209 2.2859-0.0721 4.6518 0.0809 6.9363 0.55192 2.3429 0.39527 4.5665 1.3686 6.7391 2.254 2.9865 1.5742 5.4884 3.8612 7.5874 6.4855 2.5511 2.4505 4.3978 5.5604 5.8156 8.7958 0.9902 1.4294 0.9898 3.2257 1.6151 4.7564 0.14901 0.5637 0.17644 1.1749 0.31211 1.6963z"/>
      <path d="m-36.849 363.47c2.7258 0.99837 5.3608 2.29 7.7099 4.01 2.3484 2.0487 4.5297 4.3374 6.3849 6.8327 1.1993 1.4489 1.816 3.1137 2.6773 4.736 1.0525 2.33 1.9152 4.7683 2.3436 7.2938 0.54743 1.7272 0.58816 3.4466 0.94539 5.2809-0.0042 1.7839 0.57246 3.539 0.46102 5.3264-0.14838 1.8058-0.2884 3.5489-0.63475 5.349-0.31601 1.7123-0.54602 3.4557-1.0667 5.0781-0.25131 1.6444-1.8012 2.5857-2.311 4.1159-1.0897 2.1729-2.7203 3.9683-4.2894 5.7973-1.495 1.4127-2.7738 3.1234-4.4382 4.1769-1.6246 1.1239-3.3366 2.125-5.0753 3.0802-1.384 0.38973-2.6458 0.94854-4.0108 1.3224-0.87318 0.31703-1.3922 1.2782-2.3162 1.1619-0.66637 0.0851-0.20599-0.33307 0.21934-1.1459 1.2904-1.1842 2.8706-2.1295 3.7243-3.7057 1.8333-1.1291 3.1831-2.9218 4.8412-4.1944 1.2138-1.0414 2.3426-2.1276 3.1838-3.6308 1.2658-1.0414 1.7943-2.6576 2.6105-4.0749 0.50007-1.7748 1.2224-3.4514 1.6249-5.2393 0.98623-2.2387 1.5658-4.7897 1.7472-7.2766-0.08082-1.5888 0.36955-3.1889 0.18267-4.7723 0.3273-1.4768 0.09182-3.1589-0.09608-4.7328 0.09454-1.9223-0.75409-3.7475-1.2998-5.5576-0.77648-1.7121-1.4292-3.4822-2.2756-5.1573-0.86386-1.5776-1.3263-3.3799-2.5776-4.7361-2.1269-3.4049-4.9623-6.3425-8.1348-8.7801-1.0068-0.45458-2.1544-1.4711-0.12975-0.55787z"/>
      <path d="m-64.01 379.46c-0.05983 0.70451-0.38403 1.3327-0.4009 2.0383-0.27357 0.61922-0.35434 1.3358-0.21737 2.0067 0.1093 0.71735-0.02788 1.4489-0.17873 2.1343 0.0954 0.54867 0.13371 1.087 0.21546 1.6299 0.06864 0.75041 0.15928 1.4791 0.39099 2.2009 0.23699 0.9367 0.57405 1.8568 0.82393 2.7866 0.38523 0.47647 0.48002 1.4575 1.0272 1.5952 0.58958-0.16657 0.54235-0.90235 0.87444-1.3248 0.2473-0.6635 0.52973-1.3102 0.64212-2.0209 0.25706-0.6047 0.29856-1.2544 0.4182-1.8841 0.19375-0.66494 0.35125-1.3394 0.63012-1.9752 0.23084-0.60215 0.39003-1.2282 0.65796-1.8063 0.30073-0.60596 0.62596-1.1869 0.92907-1.803 0.17951-0.57453 0.50688-0.98216 0.8616-1.407 0.34364-0.46367 0.58429-1.0254 1.0978-1.383 0.70101-0.17771 1.0247-0.89302 1.6479-1.2009 0.54849-0.4877 1.3943-1.4092 2.0746-1.665-0.76854-0.29439-1.4896-0.32191-2.2982-0.49001-0.72437-0.15659-1.6428-0.0634-2.3442-0.20711-0.6001 0.0549-1.2147 0.15621-1.7632 0.31736-0.57556 0.26374-1.1719 0.35748-1.7553 0.61892-0.58021 0.31641-1.2034 0.59927-1.8584 0.83861-0.6615 0.12478-0.93354 0.76407-1.4751 1.0005z"/></g></g>
</svg>
